<?xml version="1.0" standalone="no"?><!DOCTYPE svg PUBLIC "-//W3C//DTD SVG 1.1//EN" "http://www.w3.org/Graphics/SVG/1.1/DTD/svg11.dtd"><svg t="1646580835346" class="icon" viewBox="0 0 1582 1024" version="1.1" xmlns="http://www.w3.org/2000/svg" p-id="4440" width="197.75" height="128" xmlns:xlink="http://www.w3.org/1999/xlink"><defs><style type="text/css"></style></defs><path d="M580.732121 1020.152242c-21.131636 3.599515-37.112242-19.393939-26.127515-38.105212l170.883879-290.940121 114.563879-30.409697c37.236364-9.774545 121.080242-43.752727 213.984969-83.471515 13.901576-5.988848 25.755152 11.884606 14.770425 22.341818l-72.486788 69.56994a51.324121 51.324121 0 0 1 48.438303 30.72 51.075879 51.075879 0 0 1-26.437818 67.335757l-192.698182 84.495515c-48.593455 61.47103-102.710303 129.830788-130.699637 143.918546-12.008727 6.17503-25.258667 9.929697-39.315394 12.35006l-74.876121 12.194909zM208.896 704.853333c-21.286788 33.512727 7.912727 79.499636 59.081697 58.554182l559.879758-148.883394c87.226182-23.179636 478.611394-200.083394 559.321212-240.950303 33.82303-13.901576 205.948121-101.34497 178.796606-154.748121-20.417939-40.866909-76.955152-35.033212-144.942546-41.053091-52.565333-4.437333-107.333818-18.525091-144.942545-8.564364-95.666424 25.072485-193.536 60.602182-291.281455 102.524122L752.484848 202.162424l26.437819-11.32606a61.502061 61.502061 0 0 0 32.457697-80.554667 61.222788 61.222788 0 0 0-80.523637-32.457697l-148.231757 63.208727L279.645091 12.753455C253.393455 1.768727 226.583273 0 199.835152 9.836606L100.196848 46.235152a17.035636 17.035636 0 0 0-4.468363 30.223515l538.903273 369.912242a6702.917818 6702.917818 0 0 0-212.774788 123.500606l-298.821818-66.808242a122.84897 122.84897 0 0 0-68.173576 3.785697l-25.258667 8.564363a17.035636 17.035636 0 0 0-5.15103 29.540849l184.444121 159.899151z" p-id="4441" fill="#002fa7"></path></svg>